<svg fill="#F9F6EE" width="40" height="40" viewBox="0 0 64 64" xmlns="http://www.w3.org/2000/svg"><path d="M32 1C14.8 1 1 14.8 1 32C1 49.2 14.8 63 32 63C49.2 63 63 49.2 63 32C63 14.8 49.2 1 32 1ZM40.2 19.9C39.1 19.9 38.2 19.9 37.1 19.9C35.7 19.9 34.8 20.6 34.8 21.9C34.7 23 34.8 24.2 34.8 25.1C34.8 25.5 34.9 25.5 35.2 25.5C36.7 25.5 38.3 25.5 39.8 25.5C40.2 25.5 40.4 25.6 40.4 26.1C40.3 27.9 40 29.8 40 31.6C40 32 39.9 32 39.4 32C38.1 32 37 32 35.7 32C34.9 32 35 31.9 35 32.7C35 38.5 35 44 35 49.8C35 50.4 34.9 50.5 34.3 50.5C32.2 50.5 30.1 50.5 28 50.5C27.4 50.5 27.3 50.4 27.3 49.8C27.3 46.8 27.3 44 27.3 41.2C27.3 38.4 27.3 35.4 27.3 32.5C27.3 32.1 27.2 31.8 26.7 31.9C25.9 31.9 24.9 31.9 24 31.9C23.4 32.2 23.4 32 23.4 31.6C23.4 29.8 23.4 28.1 23.4 26.1C23.4 25.7 23.5 25.7 23.8 25.7C24.8 25.7 25.6 25.7 26.6 25.7C27.2 25.7 27.3 25.6 27.3 25C27.3 23.6 27.3 22.3 27.3 20.8C27.3 19.1 27.7 17.6 28.7 16.2C30 14.5 31.8 13.7 33.8 13.5C35.9 13.4 38 13.5 40.1 13.4C40.4 13.4 40.5 13.5 40.5 13.8C40.5 15.6 40.5 17.5 40.5 19.3C40.6 19.7 40.5 19.9 40.2 19.9Z"/></svg>