<svg xmlns="http://www.w3.org/2000/svg" xmlns:xlink="http://www.w3.org/1999/xlink" viewBox="0 0 260 25"><defs><style>.cls-1{fill:#fff;}.cls-1,.cls-3{fill-rule:evenodd;}.cls-2{mask:url(#mask);}.cls-3{fill:#3e0d81;}</style><mask id="mask" x="0" y="0" width="258" height="25" maskUnits="userSpaceOnUse"><g id="mask-2"><polygon id="path-1" class="cls-1" points="0 0 258 0 258 25 0 25 0 0"/></g></mask></defs><g id="Calque_2" data-name="Calque 2"><g id="Calque_1-2" data-name="Calque 1"><g class="cls-2"><path id="Fill-1" class="cls-3" d="M3,10.76v0c.26-2.93,1.27-5,3.11-6.36s4.3-1.93,7.65-1.93S19.58,3,21.31,4.1c2,1.29,3,3.4,3.16,6.64v0Zm-.1,2.45H27.35v0c0-4.23-.5-8.47-4.08-10.87-3-2-6.68-2.3-9.54-2.3-4,0-7,.78-9.32,2.39C1.61,4.44,0,8.14,0,12.52s1.21,7.7,3.71,9.86C5.93,24.24,8.81,25,13.64,25a74.06,74.06,0,0,0,12.5-1.45h0V21.1h0a72.45,72.45,0,0,1-12.26,1.35c-3.72,0-6.4-.66-8.16-2s-2.78-3.72-2.84-7.21Zm41,11.41a53.76,53.76,0,0,0,10-1.38V20.9a53.44,53.44,0,0,1-9.37,1.29A10.26,10.26,0,0,1,38,20.45c-1.9-1.5-2.83-4-2.83-7.57,0-3.76,1.15-6.33,3.54-7.8C40.56,3.93,43,3.45,46.3,3.45c2.52,0,4.73.22,7,.44V1.45C50.94,1.23,48.73,1,46.44,1,43,1,40,1.45,37.38,3c-3.58,2-5,5.85-5,9.84,0,3.81.79,7.22,3.49,9.43,2.3,1.91,5.08,2.35,7.95,2.35ZM83.13,13c0,3.46-.88,5.76-2.78,7.22s-4.73,2-8.62,2-6.59-.67-8.44-2.09c-2.08-1.55-3-4-3-7.48s.89-5.8,2.83-7.27,4.73-2,8.62-2c3.62,0,6.36.62,8.22,1.95C82.16,6.9,83.13,9.42,83.13,13Zm2.79-.22c0-4-1.11-7.35-4-9.39C79.24,1.58,75.79,1,71.73,1s-7.6.57-10.21,2.39c-2.87,2-4,5.36-4,9.44s1.15,7.39,4,9.39c2.61,1.81,6.1,2.39,10.21,2.39s7.51-.53,10.16-2.39c2.88-2,4-5.32,4-9.44ZM113,24h2.61V10c0-2.83-.36-5-2.34-6.73S108.68,1,105.85,1C102,1,97.9,2.11,94.23,3L94,1.63H91.89V24H94.5V5.26c4-.93,7.37-1.77,11.22-1.77,2.25,0,4.15.4,5.43,1.5S113,7.61,113,10Zm34.28-11c0,3.46-.89,5.76-2.79,7.22s-4.73,2-8.62,2-6.58-.67-8.44-2.09c-2.07-1.55-3-4-3-7.48s.88-5.8,2.83-7.27,4.73-2,8.61-2c3.63,0,6.37.62,8.22,1.95,2.21,1.55,3.19,4.07,3.19,7.66Zm2.78-.22c0-4-1.1-7.35-4-9.39C143.4,1.58,140,1,135.88,1s-7.6.57-10.2,2.39c-2.88,2-4,5.36-4,9.44s1.15,7.39,4,9.39c2.6,1.81,6.1,2.39,10.2,2.39s7.52-.53,10.17-2.39c2.87-2,4-5.32,4-9.44Zm16.54,11.83a53.76,53.76,0,0,0,9.95-1.38V20.9a53.44,53.44,0,0,1-9.37,1.29,10.26,10.26,0,0,1-6.41-1.74c-1.9-1.5-2.83-4-2.83-7.57,0-3.76,1.15-6.33,3.54-7.8,1.81-1.15,4.28-1.63,7.55-1.63,2.52,0,4.73.22,7,.44V1.45c-2.39-.22-4.6-.44-6.89-.44-3.45,0-6.41.44-9.06,2-3.58,2-5,5.85-5,9.84,0,3.81.79,7.22,3.49,9.43,2.3,1.91,5.08,2.35,8,2.35ZM205.87,13c0,3.46-.88,5.76-2.78,7.22s-4.73,2-8.62,2-6.59-.67-8.44-2.09c-2.08-1.55-3-4-3-7.48s.89-5.8,2.83-7.27,4.73-2,8.62-2c3.62,0,6.36.62,8.22,1.95,2.21,1.55,3.18,4.07,3.18,7.66Zm2.79-.22c0-4-1.11-7.35-4-9.39C202,1.58,198.54,1,194.47,1s-7.6.57-10.21,2.39c-2.87,2-4,5.36-4,9.44s1.15,7.39,4,9.39c2.61,1.81,6.1,2.39,10.21,2.39s7.51-.53,10.16-2.39c2.88-2,4-5.32,4-9.44ZM258,24V10c0-2.83-.35-5-2.21-6.73S251.42,1,248.68,1a53.71,53.71,0,0,0-11.22,1.74l-1.59.37c-2-1.65-4.94-2.18-7.72-2.11-4,.1-11.14,2-11.14,2l-.22-1.33h-2.12V24h2.6V5.26A70,70,0,0,1,228,3.49c2.22-.09,4.63.4,5.91,1.5s1.86,2.62,1.86,5V24h2.61V10a10.43,10.43,0,0,0-.86-4.81c.39-.1.8-.2,1.18-.28a44.93,44.93,0,0,1,9.73-1.42A7.59,7.59,0,0,1,253.62,5a6.46,6.46,0,0,1,1.78,5V24Z"/></g></g></g></svg>